<svg width="119" height="21" viewBox="0 0 119 21" fill="none" xmlns="http://www.w3.org/2000/svg">
<path fill-rule="evenodd" clip-rule="evenodd" d="M0.496042 2.59016L0 3.11327V10.0351V16.9569L0.401831 17.4449L0.803662 17.9332H2.85472H4.90579L5.40183 17.4099L5.89787 16.8868V14.9922V13.0978L8.26664 15.5155L10.6353 17.9332H12.661C14.6778 17.9332 14.6885 17.9313 15.1037 17.4881L15.5207 17.0432V13.0078V8.97237L18.004 11.5073L20.4873 14.0423V15.5613C20.4873 17.0186 20.505 17.0978 20.9227 17.5068C21.349 17.9244 21.3989 17.9332 23.3587 17.9332C25.3185 17.9332 25.3683 17.9244 25.7946 17.5068C26.2118 17.0983 26.23 17.0175 26.23 15.573V14.0656L28.7121 11.5172L31.194 8.96872L31.1954 11.9865L31.1966 15.0042L32.6352 16.4687L34.0738 17.9332H39.0344H43.995L45.3562 16.5482L46.7173 15.1632V13.5633C46.7173 12.0174 46.7026 11.9489 46.282 11.537C45.8475 11.1115 45.842 11.1107 43.421 11.1107H40.9953L40.9461 11.547L40.8971 11.9833L38.9182 12.0277L36.9393 12.0722V10.0841V8.09607H38.957H40.9747V8.57206V9.04805H43.3132C45.5966 9.04805 45.6641 9.03821 46.1845 8.63251L46.7173 8.21713V6.60655V4.99581L45.2787 3.53135L43.8401 2.06689H38.957H34.0738L32.6352 3.53135L31.1966 4.99581V4.03844C31.1966 3.16389 31.1524 3.03727 30.6847 2.57398L30.173 2.06689H28.232H26.2908L25.7948 2.59016C25.3492 3.06012 25.2988 3.2099 25.2988 4.06224V5.01135L24.3244 5.99855L23.35 6.98575L22.3843 5.98967L21.4186 4.99358V4.03733C21.4186 3.16405 21.3742 3.03712 20.9067 2.57398L20.395 2.06689H18.4524H16.51L16.0628 2.54415L15.6155 3.02125L15.1339 2.54415L14.6523 2.06689L12.7195 2.0715C10.7984 2.0761 10.7839 2.07895 10.2825 2.54526L9.77805 3.01443V5.03769V7.06112L7.33183 4.56393L4.88545 2.06689H2.93885H0.992084L0.496042 2.59016Z" fill="white"/>
<path d="M46.8062 3.009C46.6562 3.009 46.5172 2.982 46.3892 2.928C46.2612 2.874 46.1492 2.799 46.0532 2.703C45.9572 2.605 45.8822 2.492 45.8282 2.364C45.7762 2.236 45.7502 2.098 45.7502 1.95C45.7502 1.802 45.7772 1.664 45.8312 1.536C45.8852 1.408 45.9602 1.296 46.0562 1.2C46.1522 1.102 46.2642 1.026 46.3922 0.972C46.5222 0.918 46.6622 0.891 46.8122 0.891C46.9622 0.891 47.1012 0.918 47.2292 0.972C47.3592 1.024 47.4712 1.098 47.5652 1.194C47.6612 1.29 47.7352 1.402 47.7872 1.53C47.8412 1.656 47.8682 1.794 47.8682 1.944C47.8682 2.094 47.8412 2.234 47.7872 2.364C47.7332 2.492 47.6572 2.605 47.5592 2.703C47.4632 2.799 47.3512 2.874 47.2232 2.928C47.0952 2.982 46.9562 3.009 46.8062 3.009ZM47.1242 2.541L46.8302 2.088H47.0882L47.3822 2.541H47.1242ZM46.8032 2.844C46.9312 2.844 47.0492 2.821 47.1572 2.775C47.2652 2.729 47.3592 2.666 47.4392 2.586C47.5212 2.504 47.5842 2.408 47.6282 2.298C47.6722 2.188 47.6942 2.07 47.6942 1.944C47.6942 1.818 47.6722 1.701 47.6282 1.593C47.5842 1.485 47.5222 1.391 47.4422 1.311C47.3642 1.231 47.2712 1.169 47.1632 1.125C47.0572 1.079 46.9402 1.056 46.8122 1.056C46.6842 1.056 46.5652 1.079 46.4552 1.125C46.3472 1.169 46.2532 1.232 46.1732 1.314C46.0952 1.396 46.0332 1.491 45.9872 1.599C45.9432 1.707 45.9212 1.824 45.9212 1.95C45.9212 2.076 45.9432 2.193 45.9872 2.301C46.0312 2.409 46.0932 2.504 46.1732 2.586C46.2532 2.668 46.3472 2.732 46.4552 2.778C46.5632 2.822 46.6792 2.844 46.8032 2.844ZM46.3652 2.541V1.359H46.8572C47.0132 1.359 47.1352 1.396 47.2232 1.47C47.3112 1.544 47.3552 1.644 47.3552 1.77C47.3552 1.9 47.3112 2.001 47.2232 2.073C47.1352 2.145 47.0132 2.181 46.8572 2.181H46.6232V2.541H46.3652ZM46.6202 1.98H46.8422C46.9262 1.98 46.9912 1.962 47.0372 1.926C47.0832 1.888 47.1062 1.836 47.1062 1.77C47.1062 1.704 47.0832 1.653 47.0372 1.617C46.9912 1.581 46.9262 1.563 46.8422 1.563H46.6202V1.98Z" fill="white"/>
<path d="M55.6614 17V4.04255H57.1793L62.9916 13.8347H62.1771L67.9154 4.04255H69.4333L69.4518 17H67.6748L67.6563 6.83766H68.082L62.9731 15.4266H62.1216L56.9756 6.83766H57.4384V17H55.6614ZM73.5071 20.7021C73.0382 20.7021 72.5816 20.6219 72.1373 20.4615C71.693 20.3134 71.3105 20.0913 70.9896 19.7951L71.7486 18.4623C71.9954 18.6968 72.2669 18.8757 72.563 18.9991C72.8592 19.1226 73.1739 19.1843 73.5071 19.1843C73.939 19.1843 74.2969 19.0732 74.5807 18.8511C74.8645 18.6289 75.1299 18.234 75.3767 17.6664L75.9875 16.3151L76.1726 16.093L80.0228 7.18936H81.7628L77.0056 17.9811C76.7218 18.6721 76.4009 19.2151 76.043 19.61C75.6975 20.0049 75.315 20.2826 74.8954 20.443C74.4758 20.6157 74.013 20.7021 73.5071 20.7021ZM75.8394 17.3147L71.3599 7.18936H73.2109L77.0241 15.9264L75.8394 17.3147ZM89.3477 17.1481C88.3605 17.1481 87.4473 16.9877 86.6081 16.6668C85.7813 16.3336 85.0594 15.8709 84.4424 15.2785C83.8377 14.6738 83.3626 13.9704 83.0171 13.1683C82.6715 12.3662 82.4988 11.4838 82.4988 10.5213C82.4988 9.55872 82.6715 8.67638 83.0171 7.87426C83.3626 7.07213 83.8439 6.37489 84.4609 5.78255C85.0779 5.17787 85.7998 4.71511 86.6266 4.39426C87.4658 4.06106 88.379 3.89447 89.3662 3.89447C90.3658 3.89447 91.2852 4.06723 92.1243 4.41277C92.9758 4.74596 93.6977 5.24574 94.2901 5.91213L93.0869 7.0783C92.5932 6.56 92.0379 6.17745 91.4209 5.93064C90.8039 5.67149 90.1437 5.54192 89.4403 5.54192C88.7122 5.54192 88.0335 5.66532 87.4041 5.91213C86.7871 6.15894 86.2503 6.50447 85.7937 6.94872C85.3371 7.39298 84.9792 7.92362 84.7201 8.54064C84.4732 9.14532 84.3498 9.80553 84.3498 10.5213C84.3498 11.237 84.4732 11.9034 84.7201 12.5204C84.9792 13.1251 85.3371 13.6496 85.7937 14.0938C86.2503 14.5381 86.7871 14.8836 87.4041 15.1304C88.0335 15.3772 88.7122 15.5006 89.4403 15.5006C90.1437 15.5006 90.8039 15.3772 91.4209 15.1304C92.0379 14.8713 92.5932 14.4764 93.0869 13.9457L94.2901 15.1119C93.6977 15.7783 92.9758 16.2843 92.1243 16.6298C91.2852 16.9753 90.3596 17.1481 89.3477 17.1481ZM96.6716 17V7.18936H98.4486V17H96.6716ZM97.5601 5.30128C97.2145 5.30128 96.9245 5.19021 96.6901 4.96809C96.4679 4.74596 96.3569 4.47447 96.3569 4.15362C96.3569 3.82043 96.4679 3.54277 96.6901 3.32064C96.9245 3.09851 97.2145 2.98745 97.5601 2.98745C97.9056 2.98745 98.1894 3.09851 98.4116 3.32064C98.646 3.53043 98.7633 3.79574 98.7633 4.1166C98.7633 4.44979 98.6522 4.73362 98.4301 4.96809C98.2079 5.19021 97.9179 5.30128 97.5601 5.30128ZM105.21 17.1111C104.223 17.1111 103.458 16.8457 102.915 16.3151C102.372 15.7845 102.101 15.0255 102.101 14.0383V5.04213H103.878V13.9643C103.878 14.4949 104.007 14.9021 104.266 15.186C104.538 15.4698 104.92 15.6117 105.414 15.6117C105.969 15.6117 106.432 15.4574 106.802 15.1489L107.358 16.4262C107.086 16.6606 106.759 16.8334 106.377 16.9445C106.006 17.0555 105.618 17.1111 105.21 17.1111ZM100.435 8.6517V7.18936H106.691V8.6517H100.435ZM109.751 20.7021C109.282 20.7021 108.826 20.6219 108.381 20.4615C107.937 20.3134 107.554 20.0913 107.234 19.7951L107.993 18.4623C108.239 18.6968 108.511 18.8757 108.807 18.9991C109.103 19.1226 109.418 19.1843 109.751 19.1843C110.183 19.1843 110.541 19.0732 110.825 18.8511C111.109 18.6289 111.374 18.234 111.621 17.6664L112.231 16.3151L112.417 16.093L116.267 7.18936H118.007L113.25 17.9811C112.966 18.6721 112.645 19.2151 112.287 19.61C111.941 20.0049 111.559 20.2826 111.139 20.443C110.72 20.6157 110.257 20.7021 109.751 20.7021ZM112.083 17.3147L107.604 7.18936H109.455L113.268 15.9264L112.083 17.3147Z" fill="white"/>
</svg>
